<svg viewBox="0 0 200 200" xmlns="http://www.w3.org/2000/svg">
  <!-- FAUNA — Botanical leaf silhouette -->
  <!-- Main leaf -->
  <path d="M100,170 C75,145 40,110 45,72 C50,34 78,20 100,18 C122,20 150,34 155,72 C160,110 125,145 100,170 Z" fill="#C8A96E"/>
  <!-- Central vein -->
  <line x1="100" y1="170" x2="100" y2="30" stroke="#1C110A" stroke-width="2.5" stroke-linecap="round"/>
  <!-- Side veins -->
  <path d="M100,80 Q78,68 65,62" fill="none" stroke="#1C110A" stroke-width="1.5" stroke-linecap="round"/>
  <path d="M100,80 Q122,68 135,62" fill="none" stroke="#1C110A" stroke-width="1.5" stroke-linecap="round"/>
  <path d="M100,108 Q72,96 56,92" fill="none" stroke="#1C110A" stroke-width="1.5" stroke-linecap="round"/>
  <path d="M100,108 Q128,96 144,92" fill="none" stroke="#1C110A" stroke-width="1.5" stroke-linecap="round"/>
  <path d="M100,136 Q80,126 68,124" fill="none" stroke="#1C110A" stroke-width="1.2" stroke-linecap="round"/>
  <path d="M100,136 Q120,126 132,124" fill="none" stroke="#1C110A" stroke-width="1.2" stroke-linecap="round"/>
</svg>
